<svg width="22" height="22" fill="none" xmlns="http://www.w3.org/2000/svg"><g clip-path="url(#clip0)" stroke="#2A57E6"><path d="M11.239 21.206C4.76 16.472 3.488 7.494 8.377 1.146a.288.288 0 01.338-.085l3.197 1.372h0a.256.256 0 01.129.12c.025.05.032.108.018.164l.499.126-.5-.126L11.1 6.51s0 0 0 0a.26.26 0 01-.09.138.29.29 0 01-.168.062h0l-2.568.115-.396.017-.084.388a12.107 12.107 0 001.184 8.296l.189.35.385-.095 2.497-.608a.29.29 0 01.179.013.26.26 0 01.125.107s0 0 0 0l1.982 3.375a.23.23 0 01.028.162.256.256 0 01-.09.15l.327.398-.327-.397-2.685 2.212a.289.289 0 01-.35.012zm0 0l-.304.416.304-.416z" stroke-width="1.03"/><path d="M16.33.82l.208-.255c2.392 2.98 2.611 7.494.523 10.69l-.232-.233c-.037-.036-.05-.125-.015-.178 1.922-2.96 1.718-7.09-.481-9.845-.04-.05-.036-.14-.003-.179h0zm-1.507 1.857h0c1.407 1.885 1.543 4.627.325 6.645l.381.23-.381-.23s0 0 0 0l-.233-.234h0c-.036-.035-.05-.12-.019-.172h0c1.057-1.775.94-4.148-.284-5.81h0a.163.163 0 01.001-.174s0 0 0 0l.21-.256s0 0 0 0zm.011-.016a.033.033 0 01-.01.003l.005.003a.043.043 0 01.006-.006s0 0 0 0 0 0 0 0z" stroke-width=".9"/></g><defs><clipPath id="clip0"><path fill="#fff" d="M0 0h22v22H0z"/></clipPath></defs></svg>