<svg width="25" height="25" fill="none" xmlns="http://www.w3.org/2000/svg"><path d="M14.681 20.84l-1.18-1.184v-6.624l5.636-3.344 3.633.972a.977.977 0 10.505-1.887l-1.79-.479 1.454-.862a.977.977 0 00-.997-1.68l-1.38.818.429-1.692a.976.976 0 10-1.893-.479l-.905 3.578L13.5 10.76V5.348l2.688-2.65a.976.976 0 10-1.372-1.391L13.5 2.605V.977a.977.977 0 10-1.953 0v1.628l-1.316-1.298a.977.977 0 00-1.372 1.39l2.688 2.651v5.417l-4.69-2.771L5.9 4.342a.977.977 0 00-1.89.495l.458 1.746-1.409-.832a.977.977 0 10-.993 1.682l1.43.844-1.758.444a.977.977 0 00.478 1.894l3.67-.926 4.72 2.788-4.753 2.821-3.627-.959a.976.976 0 10-.499 1.888l1.771.469-1.388.823a.977.977 0 00.996 1.68l1.362-.808-.457 1.72a.977.977 0 001.888.5l.966-3.642 4.682-2.778v5.461l-2.688 2.65a.977.977 0 101.372 1.391l1.316-1.298v1.628a.977.977 0 101.953 0v-1.6l1.262 1.265a.974.974 0 001.38.002.976.976 0 00.003-1.381l-1.465-1.47z" fill="#ADADAD"/><path d="M22.77 14.34l-3.557.952-2.48-1.465a.977.977 0 00-.994 1.681l2.438 1.44.971 3.71a.977.977 0 101.89-.496l-.473-1.803 1.424.841a.976.976 0 10.993-1.682l-1.414-.835 1.707-.456a.977.977 0 00-.505-1.887z" fill="#ADADAD"/></svg>