<svg width="37" height="37" fill="none" xmlns="http://www.w3.org/2000/svg"><g clip-path="url(#clip0)" fill="#8E24AA"><path d="M35.697 21.418c1.104-9.291-.53-15.157-3.478-17.81l.002-.002c-4.758-4.531-20.825-5.202-26.517.203-2.556 2.644-3.456 6.525-3.555 11.328-.099 4.806-.216 13.808 8.172 16.25h.008l-.008 3.729s-.057 1.51.908 1.815c1.104.357 1.604-.344 5.037-4.445 5.741.498 10.15-.643 10.651-.81 1.16-.388 7.72-1.256 8.78-10.258zm-18.865 8.444s-3.634 4.53-4.764 5.707c-.37.383-.775.347-.77-.411 0-.498.028-6.192.028-6.192-7.111-2.038-6.692-9.703-6.615-13.713.077-4.011.811-7.297 2.976-9.509 4.993-4.682 19.08-3.635 22.668-.262 4.388 3.89 2.826 14.879 2.835 15.253-.901 7.514-6.217 7.99-7.195 8.316-.417.139-4.295 1.136-9.163.81z"/><path d="M18.842 6.625c-.594 0-.594.925 0 .932 4.605.036 8.397 3.245 8.439 9.133 0 .621.91.614.902-.008h-.002c-.05-6.344-4.19-10.022-9.34-10.057z"/><path d="M24.899 15.714c-.014.613.894.643.902.021.075-3.498-2.081-6.38-6.134-6.683-.594-.043-.656.89-.064.933 3.515.267 5.367 2.665 5.296 5.729zm-.971 3.98c-.762-.441-1.537-.167-1.858.266l-.67.868c-.341.441-.978.383-.978.383-4.646-1.23-5.889-6.092-5.889-6.092s-.057-.658.369-1.011l.838-.694c.42-.333.685-1.134.258-1.922C14.857 9.43 14.09 8.72 13.7 8.174c-.41-.513-1.027-.629-1.668-.282h-.014c-1.334.78-2.794 2.24-2.327 3.743.797 1.585 2.262 6.637 6.93 10.454 2.194 1.806 5.666 3.655 7.14 4.083l.014.021c1.452.484 2.864-1.033 3.618-2.406v-.011c.334-.665.223-1.294-.265-1.705-.867-.845-2.174-1.778-3.2-2.378z"/><path d="M20.302 12.493c1.481.086 2.2.86 2.277 2.45.027.62.93.578.902-.044-.099-2.075-1.181-3.231-3.13-3.339-.593-.035-.649.897-.05.933z"/></g><defs><clipPath id="clip0"><path fill="#fff" d="M0 0h37v37H0z"/></clipPath></defs></svg>