<svg width="37" height="37" fill="none" xmlns="http://www.w3.org/2000/svg"><rect width="37" height="37" rx="18.5" fill="#2A57E6"/><path d="M28.648 13.228s-.148-.424-1.07-.308l-3.054.022a.696.696 0 00-.403.063s-.18.096-.265.329c-.499 1.283-1.135 2.386-1.135 2.386-1.357 2.31-1.908 2.438-2.13 2.29-.52-.329-.383-1.336-.383-2.057 0-2.248.34-3.181-.668-3.425-.328-.074-.572-.127-1.431-.138-1.092-.01-2.015 0-2.534.255-.35.17-.615.551-.456.572.201.032.657.127.901.456 0 0 .265.435.308 1.39.116 2.64-.424 2.968-.424 2.968-.414.223-1.135-.148-2.195-2.333 0 0-.615-1.081-1.092-2.269-.085-.222-.255-.339-.255-.339s-.19-.148-.466-.19l-2.905.02c-.446 0-.605.202-.605.202s-.159.17-.01.52c2.269 5.333 4.856 8.004 4.856 8.004s2.364 2.47 5.047 2.301h1.219c.371-.032.562-.233.562-.233s.17-.19.159-.54c-.021-1.634.742-1.877.742-1.877.742-.234 1.697 1.58 2.714 2.28 0 0 .774.53 1.358.413l2.714-.043c1.431-.01.753-1.198.753-1.198-.053-.095-.393-.827-2.026-2.343-1.696-1.58-1.473-1.325.584-4.06 1.25-1.665 1.75-2.683 1.59-3.118z" fill="#fff"/></svg>