<svg width="25" height="22" fill="none" xmlns="http://www.w3.org/2000/svg"><path d="M20.517 13.621l-.012-.01c-.196-.173-.798-.73-1-.974-.239-.304-.184-.503-.005-.802.225-.377.677-.955 1.155-1.567 1.532-1.961 2.52-3.318 2.317-4.283l-.11-.515-5.656.003c-.02.05-.315 1.285-1.56 3.387-.904 1.524-1.496 2.002-1.705 2.087l-.032-.01c-.068-.08-.186-.295-.235-.85-.051-.582-.006-1.287.038-1.968.05-.799.095-1.488-.01-1.982l-.172-.804c-.208-.032-.968-.31-3.085-.332-1.834-.018-2.372.234-2.637.456l-.874.735 1.105.354c.421.135.56.29.675 1.061.075.503.114 1.347.033 2.101-.116 1.081-.394 1.282-.408 1.293-.048-.016-.454-.185-1.16-1.604-.489-.985-.917-2.149-1.23-3-.36-.973-.295-.766-.477-1.226H0l.354.872c1.476 3.639 2.83 6.48 4.644 8.521C7 16.82 9.489 18 12.842 18h.674v-.642c0-.6.052-1.031.164-1.359.068-.199.159-.364.254-.537.141-.254.28-.363.355-.38.069-.014.189.033.322.128.383.272.687.629 1.009 1.007.464.546.944 1.11 1.706 1.48.416.201 1.18.303 1.6.303H23l-.029-.668c-.043-.999-.869-2.247-2.454-3.71zm-1.566 3.096h-.01c-.29.005-.843-.086-1.003-.164-.507-.245-.86-.661-1.27-1.143-.36-.423-.733-.86-1.251-1.228-.42-.298-.8-.385-1.102-.385-.12 0-.23.014-.322.034-.351.075-.853.315-1.252 1.033-.112.205-.24.436-.343.739a4.344 4.344 0 00-.208 1.097c-2.526-.137-4.498-1.088-6.163-2.964C4.478 11.992 3.26 9.553 1.97 6.453h2.57l.137.37c.337.916.8 2.172 1.345 3.243.781 1.534 1.494 2.218 2.312 2.218.408 0 .774-.164 1.059-.476.405-.445.64-1.178.72-2.243.062-.84.004-1.676-.064-2.137-.057-.38-.137-.778-.334-1.134a17.2 17.2 0 012.67.118c.064.335.022.992-.018 1.63-.099 1.537-.2 3.124.655 3.866.15.13.31.2.314.204l.435.127c.168-.05 1.14.42 2.983-2.64.59-.98 1.14-2.11 1.435-2.847.686-.002 3.024 0 3.298.001-.389.815-1.31 1.978-1.913 2.75-.526.672-.98 1.252-1.246 1.697-.494.827-.41 1.564.104 2.214l.008.01c.288.348.997.993 1.145 1.123 1.066.986 1.58 1.694 1.825 2.17h-2.46z" fill="#2A57E6"/></svg>