<svg width="25" height="23" fill="none" xmlns="http://www.w3.org/2000/svg"><g clip-path="url(#clip0)"><path d="M18.192 9.255c-2.43-2.918-4.737-4.89-4.943-8.755a.332.332 0 00-.124-.265c-.041-.19-.247-.303-.453-.19-.247 0-.453.152-.453.417-5.19 5.154-13.965 18.23-2.925 21.982 4.985 1.705 10.628-.607 11.617-5.61.535-2.69-.989-5.533-2.72-7.58zM9.335 20.018c-1.194-.644-1.936-1.933-2.307-3.07-.164-.568-.247-1.137-.206-1.705.247-.986.577-1.933.948-2.88.206.833.618 1.667 1.194 2.273 1.319 1.327 3.996 2.123 4.738 3.79.453 1.024-1.318 1.895-2.06 2.123-.783.227-1.648-.152-2.307-.53z" fill="#ADADAD"/></g><defs><clipPath id="clip0"><path fill="#fff" d="M0 0h25v23H0z"/></clipPath></defs></svg>