<svg width="37" height="37" fill="none" xmlns="http://www.w3.org/2000/svg"><g clip-path="url(#clip0)" fill="#7AD06D"><path d="M17.603.021C7.831.487.12 8.625.15 18.407a18.27 18.27 0 001.997 8.277L.199 36.141a.714.714 0 00.864.84l9.267-2.196a18.265 18.265 0 007.885 1.914c9.987.152 18.315-7.778 18.627-17.762C37.175 8.235 28.342-.49 17.603.021zm11.057 28.49a14.274 14.274 0 01-10.16 4.208 14.22 14.22 0 01-6.395-1.498l-1.29-.643-5.682 1.346 1.196-5.806-.636-1.245a14.208 14.208 0 01-1.561-6.523c0-3.838 1.494-7.446 4.208-10.16A14.394 14.394 0 0118.5 3.982c3.838 0 7.447 1.495 10.16 4.208a14.275 14.275 0 014.209 10.16c0 3.804-1.52 7.471-4.209 10.16z"/><path d="M27.406 22.33l-3.554-1.02a1.325 1.325 0 00-1.311.345l-.87.886a1.295 1.295 0 01-1.407.297c-1.682-.68-5.219-3.826-6.122-5.399a1.295 1.295 0 01.103-1.435l.758-.982c.298-.384.36-.9.164-1.345l-1.496-3.383a1.326 1.326 0 00-2.07-.474c-.991.84-2.168 2.114-2.312 3.527-.252 2.49.816 5.63 4.855 9.4 4.666 4.354 8.403 4.93 10.835 4.34 1.38-.334 2.483-1.674 3.179-2.77.474-.749.1-1.742-.752-1.987z"/></g><defs><clipPath id="clip0"><path fill="#fff" d="M0 0h37v37H0z"/></clipPath></defs></svg>