<svg width="26" height="26" fill="none" xmlns="http://www.w3.org/2000/svg"><mask id="a" fill="#fff"><path d="M26 13a2.68 2.68 0 00-.599-1.686l-1.09-1.344.272-1.71c.228-1.428-.685-2.54-1.687-2.921l-1.62-.62-.616-1.614a2.675 2.675 0 00-2.921-1.689l-1.71.273-1.344-1.09a2.67 2.67 0 00-3.371 0L9.97 1.689l-1.71-.272c-1.428-.228-2.54.685-2.921 1.687l-.62 1.62-1.614.616a2.676 2.676 0 00-1.689 2.921l.273 1.71-1.09 1.344a2.67 2.67 0 000 3.371l1.09 1.344-.272 1.71c-.228 1.428.685 2.54 1.687 2.921l1.62.62.616 1.614a2.676 2.676 0 002.921 1.689l1.71-.273 1.344 1.09a2.668 2.668 0 003.371 0l1.344-1.09 1.71.272c1.428.228 2.54-.685 2.921-1.687l.62-1.62 1.614-.616a2.675 2.675 0 001.689-2.921l-.273-1.71 1.09-1.344A2.671 2.671 0 0026 13zm-1.78.724l-1.195 1.472-.011.013a1.159 1.159 0 00-.233.897l.298 1.873c.072.449-.137 1.034-.726 1.257l-1.77.677a1.16 1.16 0 00-.667.67l-.678 1.77a1.152 1.152 0 01-1.258.726l-1.872-.298-.007-.001a1.146 1.146 0 00-.908.248l-1.467 1.191a1.15 1.15 0 01-1.45 0l-1.472-1.195-.013-.01a1.159 1.159 0 00-.897-.233l-1.873.298c-.449.072-1.034-.137-1.257-.726l-.677-1.77-.003-.01a1.162 1.162 0 00-.667-.657l-1.77-.678a1.152 1.152 0 01-.726-1.258l.298-1.872.001-.007a1.146 1.146 0 00-.248-.908l-1.191-1.467a1.148 1.148 0 010-1.45l1.194-1.472.01-.013a1.16 1.16 0 00.234-.897l-.298-1.873c-.072-.449.137-1.034.726-1.257l1.77-.677.01-.003c.271-.108.532-.334.657-.667l.678-1.769a1.152 1.152 0 011.257-.726l1.873.297.007.001c.443.066.76-.125.908-.248l1.467-1.19a1.148 1.148 0 011.45-.001l1.472 1.194.013.011c.383.297.777.252.897.233l1.873-.298c.449-.072 1.034.137 1.257.726l.677 1.77a1.16 1.16 0 00.67.667l1.769.678c.426.162.826.636.726 1.258l-.297 1.872-.001.007c-.066.443.125.76.248.908l1.19 1.467c.342.42.347 1.027.001 1.45z"/></mask><path d="M26 13a2.68 2.68 0 00-.599-1.686l-1.09-1.344.272-1.71c.228-1.428-.685-2.54-1.687-2.921l-1.62-.62-.616-1.614a2.675 2.675 0 00-2.921-1.689l-1.71.273-1.344-1.09a2.67 2.67 0 00-3.371 0L9.97 1.689l-1.71-.272c-1.428-.228-2.54.685-2.921 1.687l-.62 1.62-1.614.616a2.676 2.676 0 00-1.689 2.921l.273 1.71-1.09 1.344a2.67 2.67 0 000 3.371l1.09 1.344-.272 1.71c-.228 1.428.685 2.54 1.687 2.921l1.62.62.616 1.614a2.676 2.676 0 002.921 1.689l1.71-.273 1.344 1.09a2.668 2.668 0 003.371 0l1.344-1.09 1.71.272c1.428.228 2.54-.685 2.921-1.687l.62-1.62 1.614-.616a2.675 2.675 0 001.689-2.921l-.273-1.71 1.09-1.344A2.671 2.671 0 0026 13zm-1.78.724l-1.195 1.472-.011.013a1.159 1.159 0 00-.233.897l.298 1.873c.072.449-.137 1.034-.726 1.257l-1.77.677a1.16 1.16 0 00-.667.67l-.678 1.77a1.152 1.152 0 01-1.258.726l-1.872-.298-.007-.001a1.146 1.146 0 00-.908.248l-1.467 1.191a1.15 1.15 0 01-1.45 0l-1.472-1.195-.013-.01a1.159 1.159 0 00-.897-.233l-1.873.298c-.449.072-1.034-.137-1.257-.726l-.677-1.77-.003-.01a1.162 1.162 0 00-.667-.657l-1.77-.678a1.152 1.152 0 01-.726-1.258l.298-1.872.001-.007a1.146 1.146 0 00-.248-.908l-1.191-1.467a1.148 1.148 0 010-1.45l1.194-1.472.01-.013a1.16 1.16 0 00.234-.897l-.298-1.873c-.072-.449.137-1.034.726-1.257l1.77-.677.01-.003c.271-.108.532-.334.657-.667l.678-1.769a1.152 1.152 0 011.257-.726l1.873.297.007.001c.443.066.76-.125.908-.248l1.467-1.19a1.148 1.148 0 011.45-.001l1.472 1.194.013.011c.383.297.777.252.897.233l1.873-.298c.449-.072 1.034.137 1.257.726l.677 1.77a1.16 1.16 0 00.67.667l1.769.678c.426.162.826.636.726 1.258l-.297 1.872-.001.007c-.066.443.125.76.248.908l1.19 1.467c.342.42.347 1.027.001 1.45z" fill="#FF8B75" stroke="#FF8B75" stroke-width=".4" mask="url(#a)"/><path d="M8.95 11.922a2.742 2.742 0 00-.248 1.196v.26c.008.437.097.823.267 1.16.17.336.409.595.714.777.304.18.653.27 1.047.27.393 0 .744-.094 1.05-.28l-2.83-3.383zm0 0a1.86 1.86 0 01.714-.803l-.715.803zm-.41-.112h.05v-.96H5.367v4.721h1.214v-3.76H8.54zm3.267 3.538h0a1.91 1.91 0 00.733-.824c.17-.355.255-.761.255-1.218v-.213h0a2.685 2.685 0 00-.265-1.203 1.92 1.92 0 00-.733-.817 2.029 2.029 0 00-1.073-.287 2.06 2.06 0 00-1.086.29h0a1.91 1.91 0 00-.734.824h0c-.168.353-.252.76-.252 1.218v.26h0v.002c.009.442.099.836.272 1.18h0c.175.344.42.61.733.798h0c.313.185.671.276 1.073.276.402 0 .761-.095 1.076-.286zm-.469-3.253h0c.148.225.224.562.224 1.017v.213c-.002.444-.079.777-.224 1.004a.678.678 0 01-.608.336.687.687 0 01-.627-.341c-.143-.232-.218-.57-.218-1.018 0 0 0 0 0 0l.003-.339c.016-.414.097-.717.236-.915.137-.194.335-.293.6-.293.268 0 .471.111.614.336zm5.77 1.864l.003-.053h-1.209l-.001.049c-.008.255-.078.43-.2.538-.122.11-.304.169-.553.169-.29 0-.484-.1-.598-.293-.116-.2-.177-.54-.177-1.031v-.327c.006-.452.074-.772.195-.967.119-.19.305-.288.567-.288.267 0 .455.06.576.171.119.11.188.296.196.57l.002.05h1.214l-.005-.055c-.048-.53-.246-.948-.598-1.252-.352-.306-.815-.457-1.385-.457-.397 0-.75.096-1.055.287a1.84 1.84 0 00-.7.809h0c-.161.346-.24.75-.24 1.208v.228c0 .73.176 1.301.536 1.71.36.407.853.61 1.472.61.374 0 .709-.07 1.002-.208a1.63 1.63 0 00.69-.59h0c.164-.255.253-.549.268-.878zm4.01-2.149h.05v-.96h-3.963v.96h1.362v3.761h1.213v-3.76h1.337z" fill="#fff" stroke="#fff" stroke-width=".1"/></svg>