<svg width="26" height="26" fill="none" xmlns="http://www.w3.org/2000/svg"><g clip-path="url(#clip0)"><path d="M1.843 11.479a10.705 10.705 0 016.895-8.183l-.167.288a.84.84 0 101.455.841l1.159-2.006a.84.84 0 00-.308-1.148L8.871.113a.84.84 0 00-.84 1.455l.209.121C4.1 3.155.967 6.769.188 11.187a12.338 12.338 0 00.555 6.365.84.84 0 101.579-.576 10.655 10.655 0 01-.479-5.497zm19.853 8.602a.84.84 0 00-1.184.103 10.7 10.7 0 01-10.02 3.646 10.68 10.68 0 01-4.916-2.263h.27a.84.84 0 100-1.68H3.61a.838.838 0 00-.915.754.828.828 0 00-.004.073v.013l-.002 2.316a.84.84 0 001.68 0l.001-.293a12.364 12.364 0 005.83 2.735c.708.125 1.42.186 2.127.186a12.4 12.4 0 009.471-4.406.84.84 0 00-.102-1.184zm4.191-4.282a.84.84 0 00-1.148-.308l-.276.16c.011-.06.025-.119.035-.178a12.263 12.263 0 00-2.045-9.223 12.259 12.259 0 00-7.967-5.075.84.84 0 10-.291 1.655 10.59 10.59 0 016.882 4.384 10.594 10.594 0 011.769 7.95l-.123-.213a.84.84 0 00-1.456.84l1.158 2.006a.84.84 0 001.148.308l2.006-1.158a.84.84 0 00.308-1.148z" fill="#FF8B75"/><path d="M12.294 16h-4.17v-.894l1.92-1.998c.474-.534.71-.958.71-1.272 0-.254-.056-.448-.168-.58-.112-.133-.275-.2-.489-.2-.21 0-.381.09-.513.268a1.077 1.077 0 00-.197.662H8c0-.362.092-.697.275-1.003.183-.309.438-.55.764-.723A2.29 2.29 0 0110.13 10c.646 0 1.143.148 1.49.443.35.295.526.719.526 1.271 0 .233-.044.46-.132.683-.087.22-.224.45-.41.694-.183.241-.48.565-.89.971l-.772.882h2.352V16zm4.098-2.311H17v1.056h-.608V16H15.01v-1.255H12.7l-.083-.837 2.393-3.81v-.013h1.383v3.604zm-2.458 0h1.075v-1.82l-.086.138-.99 1.682z" fill="#fff"/></g><defs><clipPath id="clip0"><path fill="#fff" d="M0 0h26v26H0z"/></clipPath></defs></svg>