<svg width="26" height="26" fill="none" xmlns="http://www.w3.org/2000/svg"><rect x="6" y="5" width="13" height="1" rx=".5" fill="#fff"/><rect x="6" y="9" width="13" height="1" rx=".5" fill="#fff"/><rect x="6" y="13" width="13" height="1" rx=".5" fill="#fff"/><rect x="6" y="17" width="8" height="1" rx=".5" fill="#fff"/><path fill-rule="evenodd" clip-rule="evenodd" d="M3.6 23.4V1.6h18.8V15H24V1a1 1 0 00-1-1H3a1 1 0 00-1 1v23a1 1 0 001 1h13v-1.6H3.6z" fill="#FF8B75"/><mask id="a" maskUnits="userSpaceOnUse" x="17" y="15" width="9" height="9" fill="#000"><path fill="#fff" d="M17 15h9v9h-9z"/><path d="M25 19.5a.721.721 0 00-.161-.454l-.294-.362.073-.46a.721.721 0 00-.454-.787l-.436-.167-.166-.434a.72.72 0 00-.786-.455l-.46.074-.362-.294a.719.719 0 00-.908 0l-.362.294-.46-.073a.721.721 0 00-.787.454l-.167.436-.434.166a.72.72 0 00-.455.786l.074.46-.294.362a.719.719 0 000 .908l.294.362-.073.46a.721.721 0 00.454.787l.436.167.166.434a.72.72 0 00.786.455l.46-.074.362.294a.719.719 0 00.908 0l.362-.294.46.073a.721.721 0 00.787-.454l.167-.436.434-.166a.72.72 0 00.455-.786l-.074-.46.294-.362A.719.719 0 0025 19.5zm-.48.195l-.321.396-.003.004a.312.312 0 00-.063.241l.08.504a.31.31 0 01-.195.339l-.477.182-.002.001a.313.313 0 00-.177.18l-.182.476a.31.31 0 01-.34.195l-.503-.08h-.002a.308.308 0 00-.245.067l-.395.32a.31.31 0 01-.39 0l-.396-.321-.004-.003a.312.312 0 00-.241-.063l-.504.08a.31.31 0 01-.339-.195l-.182-.477-.001-.002a.313.313 0 00-.18-.177l-.476-.182a.31.31 0 01-.195-.34l.08-.503v-.002a.308.308 0 00-.067-.245l-.32-.395a.31.31 0 010-.39l.321-.396.003-.004a.312.312 0 00.063-.241l-.08-.504a.31.31 0 01.195-.339l.477-.182.002-.001a.313.313 0 00.177-.18l.182-.476a.31.31 0 01.34-.195l.503.08h.002a.308.308 0 00.245-.067l.395-.32a.31.31 0 01.39 0l.396.321.004.003c.103.08.209.068.241.063l.504-.08a.31.31 0 01.339.195l.182.477.001.002c.03.073.09.143.18.177l.476.182a.31.31 0 01.195.34l-.08.503v.002a.308.308 0 00.067.245l.32.395a.31.31 0 010 .39z"/></mask><path d="M25 19.5a.721.721 0 00-.161-.454l-.294-.362.073-.46a.721.721 0 00-.454-.787l-.436-.167-.166-.434a.72.72 0 00-.786-.455l-.46.074-.362-.294a.719.719 0 00-.908 0l-.362.294-.46-.073a.721.721 0 00-.787.454l-.167.436-.434.166a.72.72 0 00-.455.786l.074.46-.294.362a.719.719 0 000 .908l.294.362-.073.46a.721.721 0 00.454.787l.436.167.166.434a.72.72 0 00.786.455l.46-.074.362.294a.719.719 0 00.908 0l.362-.294.46.073a.721.721 0 00.787-.454l.167-.436.434-.166a.72.72 0 00.455-.786l-.074-.46.294-.362A.719.719 0 0025 19.5zm-.48.195l-.321.396-.003.004a.312.312 0 00-.063.241l.08.504a.31.31 0 01-.195.339l-.477.182-.002.001a.313.313 0 00-.177.18l-.182.476a.31.31 0 01-.34.195l-.503-.08h-.002a.308.308 0 00-.245.067l-.395.32a.31.31 0 01-.39 0l-.396-.321-.004-.003a.312.312 0 00-.241-.063l-.504.08a.31.31 0 01-.339-.195l-.182-.477-.001-.002a.313.313 0 00-.18-.177l-.476-.182a.31.31 0 01-.195-.34l.08-.503v-.002a.308.308 0 00-.067-.245l-.32-.395a.31.31 0 010-.39l.321-.396.003-.004a.312.312 0 00.063-.241l-.08-.504a.31.31 0 01.195-.339l.477-.182.002-.001a.313.313 0 00.177-.18l.182-.476a.31.31 0 01.34-.195l.503.08h.002a.308.308 0 00.245-.067l.395-.32a.31.31 0 01.39 0l.396.321.004.003c.103.08.209.068.241.063l.504-.08a.31.31 0 01.339.195l.182.477.001.002c.03.073.09.143.18.177l.476.182a.31.31 0 01.195.34l-.08.503v.002a.308.308 0 00.067.245l.32.395a.31.31 0 010 .39z" fill="#fff"/><path d="M25 19.5a.721.721 0 00-.161-.454l-.294-.362.073-.46a.721.721 0 00-.454-.787l-.436-.167-.166-.434a.72.72 0 00-.786-.455l-.46.074-.362-.294a.719.719 0 00-.908 0l-.362.294-.46-.073a.721.721 0 00-.787.454l-.167.436-.434.166a.72.72 0 00-.455.786l.074.46-.294.362a.719.719 0 000 .908l.294.362-.073.46a.721.721 0 00.454.787l.436.167.166.434a.72.72 0 00.786.455l.46-.074.362.294a.719.719 0 00.908 0l.362-.294.46.073a.721.721 0 00.787-.454l.167-.436.434-.166a.72.72 0 00.455-.786l-.074-.46.294-.362A.719.719 0 0025 19.5zm-.48.195l-.321.396-.003.004a.312.312 0 00-.063.241l.08.504a.31.31 0 01-.195.339l-.477.182-.002.001a.313.313 0 00-.177.18l-.182.476a.31.31 0 01-.34.195l-.503-.08h-.002a.308.308 0 00-.245.067l-.395.32a.31.31 0 01-.39 0l-.396-.321-.004-.003a.312.312 0 00-.241-.063l-.504.08a.31.31 0 01-.339-.195l-.182-.477-.001-.002a.313.313 0 00-.18-.177l-.476-.182a.31.31 0 01-.195-.34l.08-.503v-.002a.308.308 0 00-.067-.245l-.32-.395a.31.31 0 010-.39l.321-.396.003-.004a.312.312 0 00.063-.241l-.08-.504a.31.31 0 01.195-.339l.477-.182.002-.001a.313.313 0 00.177-.18l.182-.476a.31.31 0 01.34-.195l.503.08h.002a.308.308 0 00.245-.067l.395-.32a.31.31 0 01.39 0l.396.321.004.003c.103.08.209.068.241.063l.504-.08a.31.31 0 01.339.195l.182.477.001.002c.03.073.09.143.18.177l.476.182a.31.31 0 01.195.34l-.08.503v.002a.308.308 0 00.067.245l.32.395a.31.31 0 010 .39z" stroke="#fff" stroke-width=".4" mask="url(#a)"/><path fill-rule="evenodd" clip-rule="evenodd" d="M21.5 22.705L20.132 22 18 25.295l.13.068 1.105-.57v1.139l.132.068 2.133-3.295zm0 0L22.868 22 25 25.295l-.13.068-1.107-.57v1.14l-.13.067-2.133-3.295z" fill="#fff"/><circle cx="21.5" cy="19.5" r="1.5" fill="#FF8B75"/></svg>