<svg width="26" height="26" fill="none" xmlns="http://www.w3.org/2000/svg"><mask id="a" fill="#fff"><rect x="2" width="22" height="26" rx="1"/></mask><rect x="2" width="22" height="26" rx="1" stroke="#FF8B75" stroke-width="3.2" mask="url(#a)"/><circle cx="13" cy="7" r="4.4" stroke="#fff" stroke-width="1.2"/><path fill="#FF8B75" d="M10 15h6v6h-6z"/><path d="M10 18l1.5-.5v2l2.1-1.5m1.4-1l-1.4 1m0 0l.9 1.5" stroke="#2A57E6" stroke-width=".2"/><circle cx="13" cy="7" r="1" fill="#fff"/><path d="M13.3 4a.3.3 0 10-.6 0h.6zm0 3V4h-.6v3h.6z" fill="#fff"/><rect x="7.8" y="13.8" width="10.4" height="1.4" rx=".7" fill="#fff" stroke="#2A57E6" stroke-width=".4"/><rect x="7.8" y="20.8" width="10.4" height="1.4" rx=".7" fill="#fff" stroke="#2A57E6" stroke-width=".4"/></svg>