<svg width="141" height="34" fill="none" xmlns="http://www.w3.org/2000/svg"><path d="M0 27.122v5.698h1.21v-4.623h2.374v4.623h1.21v-5.698H0zm8.375 0H6.098v5.698h1.217v-1.571h1.06c1.405 0 2.284-.79 2.284-2.06 0-1.277-.879-2.067-2.284-2.067zm-.068 3.052h-.992v-1.977h.992c.744 0 1.12.366 1.12.992 0 .62-.376.985-1.12.985zm5.739 2.743c1.653 0 2.878-1.245 2.878-2.946s-1.225-2.947-2.878-2.947c-1.661 0-2.878 1.254-2.878 2.947s1.217 2.946 2.878 2.946zm0-1.123c-.94 0-1.646-.74-1.646-1.823s.706-1.823 1.646-1.823c.939 0 1.645.74 1.645 1.823 0 1.082-.706 1.823-1.646 1.823zm3.815 1.026h1.15l2.51-3.704v3.704h1.202v-5.698h-1.142l-2.51 3.712v-3.712h-1.21v5.698zm9.162-2.971a1.3 1.3 0 00.76-1.213c0-1.034-1.053-1.636-2.27-1.636a3.72 3.72 0 00-1.803.464l.368 1.026c.45-.277.97-.407 1.413-.407.593 0 1.059.244 1.059.708 0 .374-.285.61-.781.61h-1.195v.993h1.285c.548 0 .909.212.909.643 0 .53-.564.806-1.255.806a2.938 2.938 0 01-1.578-.464l-.376.944a3.994 3.994 0 002.097.594c1.262 0 2.344-.618 2.344-1.693 0-.643-.368-1.147-.977-1.375zm5.585 0c.466-.244.744-.676.744-1.254 0-.944-.721-1.473-1.938-1.473h-2.45v5.698h2.593c1.33 0 2.043-.61 2.043-1.604 0-.692-.353-1.164-.992-1.367zm-2.434-1.75h1.134c.526 0 .804.244.804.692 0 .456-.278.692-.804.692h-1.134v-1.384zm1.337 3.744h-1.337v-1.44h1.337c.564 0 .857.227.857.707 0 .497-.293.733-.857.733zm5.562 1.074c1.653 0 2.878-1.245 2.878-2.946s-1.225-2.947-2.878-2.947c-1.66 0-2.878 1.254-2.878 2.947s1.217 2.946 2.878 2.946zm0-1.123c-.94 0-1.646-.74-1.646-1.823s.707-1.823 1.646-1.823c.94 0 1.646.74 1.646 1.823 0 1.082-.707 1.823-1.646 1.823zm8.357-.049v-4.623h-4.042l-.06 1.783c-.053 1.595-.225 2.816-.91 2.84h-.21L40.201 34h1.127v-1.18h3.712V34h1.127v-2.255h-.736zm-3.027-2.718l.022-.83h1.804v3.548h-2.352c.36-.464.48-1.506.526-2.718zm7.071 3.89c.917 0 1.676-.358 2.172-1.017l-.782-.781c-.353.447-.796.675-1.322.675-.985 0-1.684-.749-1.684-1.823 0-1.075.7-1.823 1.684-1.823.526 0 .969.228 1.322.667l.782-.781c-.496-.651-1.255-1.01-2.165-1.01-1.638 0-2.855 1.23-2.855 2.947s1.217 2.946 2.848 2.946zm6.934-5.795h-4.561v1.075h1.675v4.623h1.203v-4.623h1.683v-1.075zm4.409 2.727c.466-.244.744-.676.744-1.254 0-.944-.722-1.473-1.94-1.473h-2.449v5.698h2.593c1.33 0 2.044-.61 2.044-1.604 0-.692-.354-1.164-.992-1.367zm-2.435-1.75h1.135c.526 0 .804.244.804.692 0 .456-.278.692-.804.692h-1.135v-1.384zm1.338 3.744h-1.338v-1.44h1.338c.563 0 .856.227.856.707 0 .497-.293.733-.856.733zm4.261-.081v-1.319h2.442v-1.026h-2.442V28.18h2.765v-1.058h-3.975v5.698h4.073v-1.058h-2.863zm7.453-4.64v2.247h-2.39v-2.247h-1.217v5.698h1.218v-2.336h2.39v2.336h1.217v-5.698h-1.218zm6.142 0v2.247h-2.39v-2.247H73.97v5.698h1.218v-2.336h2.39v2.336h1.217v-5.698h-1.218zm6.564 5.698h1.277l-2.352-5.698h-1.203l-2.344 5.698h1.247l.466-1.221h2.442l.466 1.22zm-2.518-2.222l.834-2.182.834 2.182h-1.668zm6.152-3.476c-1.39 0-2.27.798-2.27 2.125 0 .895.399 1.546 1.105 1.855l-1.097 1.718h1.285l.932-1.514h1.112v1.514h1.202v-5.698h-2.27zm.03 1.075h1.037v2.067h-1.067c-.684 0-1.037-.374-1.037-1.034 0-.683.376-1.034 1.067-1.034zm9.089 4.623h1.383l-1.774-2.947 1.721-2.75h-1.285l-1.382 2.303h-.872v-2.304h-1.21v5.698h1.21v-2.296h.842l1.367 2.296zm4.441.097c1.653 0 2.878-1.245 2.878-2.946s-1.225-2.947-2.878-2.947c-1.66 0-2.878 1.254-2.878 2.947s1.217 2.946 2.878 2.946zm0-1.123c-.939 0-1.646-.74-1.646-1.823s.707-1.823 1.646-1.823 1.646.74 1.646 1.823c0 1.082-.707 1.823-1.646 1.823zm9.744 1.026l-.007-5.698h-1.007l-1.939 3.54-1.968-3.54h-1.007v5.698h1.142v-3.346l1.548 2.743h.541l1.548-2.808.007 3.41h1.142zm1.307-5.698v5.698h1.21v-4.623h2.375v4.623h1.209v-5.698h-4.794zm10.126 5.698h1.277l-2.352-5.698h-1.202l-2.344 5.698h1.247l.466-1.221h2.442l.466 1.22zm-2.517-2.222l.834-2.182.834 2.182h-1.668zm8.099-3.476v2.247h-2.39v-2.247h-1.217v5.698h1.217v-2.336h2.39v2.336h1.217v-5.698h-1.217zm2.535 5.698h1.15l2.51-3.704v3.704h1.202v-5.698h-1.142l-2.51 3.712v-3.712h-1.21v5.698zm8.103-5.698c-1.39 0-2.27.798-2.27 2.125 0 .895.399 1.546 1.105 1.855l-1.097 1.718h1.285l.932-1.514h1.112v1.514H141v-5.698h-2.269zm.03 1.075h1.037v2.067h-1.067c-.684 0-1.037-.374-1.037-1.034 0-.683.375-1.034 1.067-1.034z" fill="#353535"/><rect x="53" width="88" height="24" rx="3" fill="#2A57E6"/><path d="M67.366 20c2.371 0 4.334-.87 5.617-2.473L70.96 15.63c-.913 1.088-2.06 1.641-3.42 1.641-2.546 0-4.354-1.82-4.354-4.43 0-2.611 1.808-4.431 4.354-4.431 1.36 0 2.507.554 3.42 1.622l2.022-1.9C71.7 6.55 69.737 5.68 67.385 5.68 63.148 5.68 60 8.666 60 12.84c0 4.174 3.148 7.16 7.366 7.16zM86.271 5.916H74.474v2.611h4.334v11.236h3.11V8.527h4.353v-2.61zm12.683 13.847h3.304L96.175 5.916h-3.11l-6.064 13.847h3.227l1.205-2.967h6.316l1.205 2.967zm-6.51-5.4L94.6 9.062l2.158 5.3h-4.315zm18.867-9.337c2.546 0 3.751-1.088 3.771-3.026h-2.158c-.019.95-.583 1.444-1.613 1.444-1.069 0-1.593-.495-1.613-1.444h-2.157c.019 1.938 1.185 3.026 3.77 3.026zm-6.277 14.737h2.973l6.492-9v9h3.109V5.916h-2.954l-6.491 9.02v-9.02h-3.129v13.847zm18.51-13.847l-.194 5.618c-.136 3.54-.545 5.598-2.138 5.598-.195 0-.37-.02-.564-.08l-.194 2.71c.583.14 1.088.218 1.555.218 3.187 0 3.945-3.125 4.12-8.565l.097-2.888h4.664v11.236H134V5.916h-10.456z" fill="#FCFCFB"/><path d="M6.593 5.406H.364v14.39h3.33v-3.968h2.9c3.843 0 6.248-1.994 6.248-5.2 0-3.228-2.405-5.222-6.249-5.222zm-.185 7.709H3.695V8.119h2.713c2.035 0 3.063.925 3.063 2.508 0 1.563-1.028 2.488-3.063 2.488zm12.969 4.008v-3.33h6.681v-2.59h-6.681V8.078h7.565V5.406H16.067v14.39H27.21v-2.673h-7.832zm27.77 2.673l-.02-14.39h-2.755l-5.304 8.942-5.386-8.942h-2.755v14.39h3.125v-8.45l4.235 6.929h1.48l4.235-7.093.02 8.614h3.125z" fill="#2A57E6"/></svg>